<mxfile host="app.diagrams.net" agent="Mozilla/5.0 (X11; Linux x86_64) AppleWebKit/537.36 (KHTML, like Gecko) Chrome/127.0.0.0 Safari/537.36 Edg/127.0.0.0" version="24.7.6">
  <diagram name="Trang-1" id="9A4ezD013tNtNnK_R6i9">
    <mxGraphModel dx="1540" dy="881" grid="1" gridSize="10" guides="1" tooltips="1" connect="1" arrows="1" fold="1" page="1" pageScale="1" pageWidth="827" pageHeight="1169" math="0" shadow="0">
      <root>
        <mxCell id="0" />
        <mxCell id="1" parent="0" />
        <mxCell id="Ig4rclOMVAvau0s1pCfv-1" value="VPC" style="points=[[0,0],[0.25,0],[0.5,0],[0.75,0],[1,0],[1,0.25],[1,0.5],[1,0.75],[1,1],[0.75,1],[0.5,1],[0.25,1],[0,1],[0,0.75],[0,0.5],[0,0.25]];outlineConnect=0;gradientColor=none;html=1;whiteSpace=wrap;fontSize=12;fontStyle=0;container=1;pointerEvents=0;collapsible=0;recursiveResize=0;shape=mxgraph.aws4.group;grIcon=mxgraph.aws4.group_vpc2;strokeColor=#000000;fillColor=none;verticalAlign=top;align=left;spacingLeft=30;fontColor=#AAB7B8;dashed=0;" vertex="1" parent="1">
          <mxGeometry x="70" y="690" width="710" height="820" as="geometry" />
        </mxCell>
        <mxCell id="Ig4rclOMVAvau0s1pCfv-3" value="&lt;span style=&quot;color: rgb(0, 0, 0);&quot;&gt;Router&lt;/span&gt;" style="sketch=0;outlineConnect=0;fontColor=#ffffff;fillColor=#60a917;strokeColor=#2D7600;dashed=0;verticalLabelPosition=bottom;verticalAlign=top;align=center;html=1;fontSize=12;fontStyle=0;aspect=fixed;pointerEvents=1;shape=mxgraph.aws4.customer_gateway;" vertex="1" parent="Ig4rclOMVAvau0s1pCfv-1">
          <mxGeometry x="324" y="90" width="50" height="50" as="geometry" />
        </mxCell>
        <mxCell id="Ig4rclOMVAvau0s1pCfv-29" value="&lt;span style=&quot;color: rgb(0, 0, 0); font-family: Helvetica; font-size: 12px; font-style: normal; font-variant-ligatures: normal; font-variant-caps: normal; font-weight: 400; letter-spacing: normal; orphans: 2; text-align: center; text-indent: 0px; text-transform: none; widows: 2; word-spacing: 0px; -webkit-text-stroke-width: 0px; white-space: nowrap; background-color: rgb(251, 251, 251); text-decoration-thickness: initial; text-decoration-style: initial; text-decoration-color: initial; display: inline !important; float: none;&quot;&gt;Router table&lt;/span&gt;" style="sketch=0;outlineConnect=0;fontColor=#ffffff;fillColor=#60a917;strokeColor=#2D7600;dashed=0;verticalLabelPosition=bottom;verticalAlign=top;align=center;html=1;fontSize=12;fontStyle=0;aspect=fixed;pointerEvents=1;shape=mxgraph.aws4.route_table;" vertex="1" parent="Ig4rclOMVAvau0s1pCfv-1">
          <mxGeometry x="159.32999999999998" y="160" width="51.33" height="50" as="geometry" />
        </mxCell>
        <mxCell id="Ig4rclOMVAvau0s1pCfv-31" value="&lt;span style=&quot;color: rgb(0, 0, 0); font-family: Helvetica; font-size: 12px; font-style: normal; font-variant-ligatures: normal; font-variant-caps: normal; font-weight: 400; letter-spacing: normal; orphans: 2; text-align: center; text-indent: 0px; text-transform: none; widows: 2; word-spacing: 0px; -webkit-text-stroke-width: 0px; white-space: nowrap; background-color: rgb(251, 251, 251); text-decoration-thickness: initial; text-decoration-style: initial; text-decoration-color: initial; display: inline !important; float: none;&quot;&gt;Router table&lt;/span&gt;" style="sketch=0;outlineConnect=0;fontColor=#ffffff;fillColor=#60a917;strokeColor=#2D7600;dashed=0;verticalLabelPosition=bottom;verticalAlign=top;align=center;html=1;fontSize=12;fontStyle=0;aspect=fixed;pointerEvents=1;shape=mxgraph.aws4.route_table;" vertex="1" parent="Ig4rclOMVAvau0s1pCfv-1">
          <mxGeometry x="484.34" y="160" width="51.33" height="50" as="geometry" />
        </mxCell>
        <mxCell id="Ig4rclOMVAvau0s1pCfv-34" value="" style="edgeStyle=orthogonalEdgeStyle;html=1;endArrow=block;elbow=vertical;startArrow=block;startFill=1;endFill=1;strokeColor=#545B64;rounded=0;" edge="1" parent="Ig4rclOMVAvau0s1pCfv-1" source="Ig4rclOMVAvau0s1pCfv-29" target="Ig4rclOMVAvau0s1pCfv-3">
          <mxGeometry width="100" relative="1" as="geometry">
            <mxPoint x="180" y="110" as="sourcePoint" />
            <mxPoint x="280" y="110" as="targetPoint" />
            <Array as="points">
              <mxPoint x="185" y="115" />
            </Array>
          </mxGeometry>
        </mxCell>
        <mxCell id="Ig4rclOMVAvau0s1pCfv-35" value="" style="edgeStyle=orthogonalEdgeStyle;html=1;endArrow=block;elbow=vertical;startArrow=block;startFill=1;endFill=1;strokeColor=#545B64;rounded=0;" edge="1" parent="Ig4rclOMVAvau0s1pCfv-1" source="Ig4rclOMVAvau0s1pCfv-3" target="Ig4rclOMVAvau0s1pCfv-31">
          <mxGeometry width="100" relative="1" as="geometry">
            <mxPoint x="380" y="120" as="sourcePoint" />
            <mxPoint x="480" y="120" as="targetPoint" />
          </mxGeometry>
        </mxCell>
        <mxCell id="Ig4rclOMVAvau0s1pCfv-45" value="" style="edgeStyle=orthogonalEdgeStyle;html=1;endArrow=block;elbow=vertical;startArrow=block;startFill=1;endFill=1;strokeColor=#545B64;rounded=0;entryX=0.5;entryY=0;entryDx=0;entryDy=0;" edge="1" parent="Ig4rclOMVAvau0s1pCfv-1" source="Ig4rclOMVAvau0s1pCfv-29" target="Ig4rclOMVAvau0s1pCfv-37">
          <mxGeometry width="100" relative="1" as="geometry">
            <mxPoint x="140" y="240" as="sourcePoint" />
            <mxPoint x="240" y="240" as="targetPoint" />
          </mxGeometry>
        </mxCell>
        <mxCell id="Ig4rclOMVAvau0s1pCfv-47" value="" style="edgeStyle=orthogonalEdgeStyle;html=1;endArrow=block;elbow=vertical;startArrow=block;startFill=1;endFill=1;strokeColor=#545B64;rounded=0;entryX=0.5;entryY=0;entryDx=0;entryDy=0;" edge="1" parent="Ig4rclOMVAvau0s1pCfv-1" source="Ig4rclOMVAvau0s1pCfv-31" target="Ig4rclOMVAvau0s1pCfv-43">
          <mxGeometry width="100" relative="1" as="geometry">
            <mxPoint x="480" y="240" as="sourcePoint" />
            <mxPoint x="580" y="240" as="targetPoint" />
          </mxGeometry>
        </mxCell>
        <mxCell id="Ig4rclOMVAvau0s1pCfv-50" value="" style="group" vertex="1" connectable="0" parent="Ig4rclOMVAvau0s1pCfv-1">
          <mxGeometry x="435" y="260" width="150.00000000000006" height="70" as="geometry" />
        </mxCell>
        <mxCell id="Ig4rclOMVAvau0s1pCfv-43" value="Network ACL&lt;div&gt;(Private subnet)&lt;/div&gt;" style="whiteSpace=wrap;html=1;align=center;fillColor=#b0e3e6;strokeColor=#0e8088;" vertex="1" parent="Ig4rclOMVAvau0s1pCfv-50">
          <mxGeometry y="20" width="150" height="50" as="geometry" />
        </mxCell>
        <mxCell id="Ig4rclOMVAvau0s1pCfv-44" value="" style="html=1;verticalLabelPosition=bottom;align=center;labelBackgroundColor=#ffffff;verticalAlign=top;strokeWidth=2;strokeColor=#0e8088;shadow=0;dashed=0;shape=mxgraph.ios7.icons.locked;fillColor=#b0e3e6;" vertex="1" parent="Ig4rclOMVAvau0s1pCfv-50">
          <mxGeometry x="119.99999999999994" width="24" height="30" as="geometry" />
        </mxCell>
        <mxCell id="Ig4rclOMVAvau0s1pCfv-51" value="" style="group" vertex="1" connectable="0" parent="Ig4rclOMVAvau0s1pCfv-1">
          <mxGeometry x="110" y="260" width="150" height="70" as="geometry" />
        </mxCell>
        <mxCell id="Ig4rclOMVAvau0s1pCfv-37" value="Network ACL&lt;div&gt;(Public subnet)&lt;/div&gt;" style="whiteSpace=wrap;html=1;align=center;fillColor=#b0e3e6;strokeColor=#0e8088;" vertex="1" parent="Ig4rclOMVAvau0s1pCfv-51">
          <mxGeometry y="20" width="150" height="50" as="geometry" />
        </mxCell>
        <mxCell id="Ig4rclOMVAvau0s1pCfv-40" value="" style="html=1;verticalLabelPosition=bottom;align=center;labelBackgroundColor=#ffffff;verticalAlign=top;strokeWidth=2;strokeColor=#0e8088;shadow=0;dashed=0;shape=mxgraph.ios7.icons.locked;fillColor=#b0e3e6;" vertex="1" parent="Ig4rclOMVAvau0s1pCfv-51">
          <mxGeometry x="119.99999999999999" width="24" height="30" as="geometry" />
        </mxCell>
        <mxCell id="Ig4rclOMVAvau0s1pCfv-71" value="&lt;div&gt;&lt;font style=&quot;font-size: 18px;&quot;&gt;&lt;b&gt;VPC&lt;/b&gt;&lt;/font&gt;&lt;/div&gt;&lt;div&gt;&lt;font size=&quot;3&quot;&gt;&lt;b&gt;172.16.0.0/16&amp;nbsp;&lt;/b&gt;&lt;/font&gt;&lt;/div&gt;" style="text;html=1;align=center;verticalAlign=middle;resizable=0;points=[];autosize=1;strokeColor=none;fillColor=none;" vertex="1" parent="Ig4rclOMVAvau0s1pCfv-1">
          <mxGeometry x="290" y="750" width="130" height="50" as="geometry" />
        </mxCell>
        <mxCell id="Ig4rclOMVAvau0s1pCfv-26" value="Public subnet" style="points=[[0,0],[0.25,0],[0.5,0],[0.75,0],[1,0],[1,0.25],[1,0.5],[1,0.75],[1,1],[0.75,1],[0.5,1],[0.25,1],[0,1],[0,0.75],[0,0.5],[0,0.25]];outlineConnect=0;gradientColor=none;html=1;whiteSpace=wrap;fontSize=12;fontStyle=0;container=1;pointerEvents=0;collapsible=0;recursiveResize=0;shape=mxgraph.aws4.group;grIcon=mxgraph.aws4.group_security_group;grStroke=0;strokeColor=#7AA116;fillColor=#F2F6E8;verticalAlign=top;align=left;spacingLeft=30;fontColor=#248814;dashed=0;" vertex="1" parent="1">
          <mxGeometry x="120" y="1110" width="270" height="300" as="geometry" />
        </mxCell>
        <mxCell id="Ig4rclOMVAvau0s1pCfv-52" value="" style="group" vertex="1" connectable="0" parent="Ig4rclOMVAvau0s1pCfv-26">
          <mxGeometry x="20" y="50" width="230" height="190" as="geometry" />
        </mxCell>
        <mxCell id="Ig4rclOMVAvau0s1pCfv-9" value="Security group" style="fillColor=none;strokeColor=#DD3522;verticalAlign=top;fontStyle=0;fontColor=#DD3522;whiteSpace=wrap;html=1;" vertex="1" parent="Ig4rclOMVAvau0s1pCfv-52">
          <mxGeometry y="20" width="230" height="170" as="geometry" />
        </mxCell>
        <mxCell id="Ig4rclOMVAvau0s1pCfv-19" value="" style="html=1;verticalLabelPosition=bottom;align=center;labelBackgroundColor=#ffffff;verticalAlign=top;strokeWidth=2;strokeColor=#DD3522;shadow=0;dashed=0;shape=mxgraph.ios7.icons.locked;" vertex="1" parent="Ig4rclOMVAvau0s1pCfv-52">
          <mxGeometry x="200" width="24" height="30" as="geometry" />
        </mxCell>
        <mxCell id="Ig4rclOMVAvau0s1pCfv-67" value="Computer" style="sketch=0;outlineConnect=0;fontColor=#232F3E;gradientColor=none;fillColor=#ED7100;strokeColor=none;dashed=0;verticalLabelPosition=bottom;verticalAlign=top;align=center;html=1;fontSize=12;fontStyle=0;aspect=fixed;pointerEvents=1;shape=mxgraph.aws4.instance2;" vertex="1" parent="Ig4rclOMVAvau0s1pCfv-52">
          <mxGeometry x="152" y="71" width="48" height="48" as="geometry" />
        </mxCell>
        <mxCell id="Ig4rclOMVAvau0s1pCfv-68" value="Web Sever" style="sketch=0;outlineConnect=0;fontColor=#232F3E;gradientColor=none;fillColor=#ED7100;strokeColor=none;dashed=0;verticalLabelPosition=bottom;verticalAlign=top;align=center;html=1;fontSize=12;fontStyle=0;aspect=fixed;pointerEvents=1;shape=mxgraph.aws4.instance2;" vertex="1" parent="Ig4rclOMVAvau0s1pCfv-52">
          <mxGeometry x="40" y="71" width="48" height="48" as="geometry" />
        </mxCell>
        <mxCell id="Ig4rclOMVAvau0s1pCfv-73" value="&lt;div&gt;&lt;b&gt;172.16.1.0/24&amp;nbsp;&lt;/b&gt;&lt;/div&gt;" style="text;html=1;align=center;verticalAlign=middle;resizable=0;points=[];autosize=1;strokeColor=none;fillColor=none;" vertex="1" parent="Ig4rclOMVAvau0s1pCfv-26">
          <mxGeometry x="85" y="258" width="100" height="30" as="geometry" />
        </mxCell>
        <mxCell id="Ig4rclOMVAvau0s1pCfv-27" value="Private subnet" style="points=[[0,0],[0.25,0],[0.5,0],[0.75,0],[1,0],[1,0.25],[1,0.5],[1,0.75],[1,1],[0.75,1],[0.5,1],[0.25,1],[0,1],[0,0.75],[0,0.5],[0,0.25]];outlineConnect=0;gradientColor=none;html=1;whiteSpace=wrap;fontSize=12;fontStyle=0;container=1;pointerEvents=0;collapsible=0;recursiveResize=0;shape=mxgraph.aws4.group;grIcon=mxgraph.aws4.group_security_group;grStroke=0;strokeColor=#00A4A6;fillColor=#E6F6F7;verticalAlign=top;align=left;spacingLeft=30;fontColor=#147EBA;dashed=0;" vertex="1" parent="1">
          <mxGeometry x="440" y="1110" width="280" height="300" as="geometry" />
        </mxCell>
        <mxCell id="Ig4rclOMVAvau0s1pCfv-53" value="" style="group" vertex="1" connectable="0" parent="Ig4rclOMVAvau0s1pCfv-27">
          <mxGeometry x="25.000000000000025" y="50" width="230" height="190" as="geometry" />
        </mxCell>
        <mxCell id="Ig4rclOMVAvau0s1pCfv-17" value="Security group" style="fillColor=none;strokeColor=#DD3522;verticalAlign=top;fontStyle=0;fontColor=#DD3522;whiteSpace=wrap;html=1;" vertex="1" parent="Ig4rclOMVAvau0s1pCfv-53">
          <mxGeometry y="20" width="230" height="170" as="geometry" />
        </mxCell>
        <mxCell id="Ig4rclOMVAvau0s1pCfv-18" value="" style="html=1;verticalLabelPosition=bottom;align=center;labelBackgroundColor=#ffffff;verticalAlign=top;strokeWidth=2;strokeColor=#DD3522;shadow=0;dashed=0;shape=mxgraph.ios7.icons.locked;" vertex="1" parent="Ig4rclOMVAvau0s1pCfv-53">
          <mxGeometry x="199.99999999999994" width="24" height="30" as="geometry" />
        </mxCell>
        <mxCell id="Ig4rclOMVAvau0s1pCfv-65" value="Database" style="sketch=0;outlineConnect=0;fontColor=#232F3E;gradientColor=none;fillColor=#ED7100;strokeColor=none;dashed=0;verticalLabelPosition=bottom;verticalAlign=top;align=center;html=1;fontSize=12;fontStyle=0;aspect=fixed;pointerEvents=1;shape=mxgraph.aws4.db_on_instance2;" vertex="1" parent="Ig4rclOMVAvau0s1pCfv-53">
          <mxGeometry x="35" y="71" width="48" height="48" as="geometry" />
        </mxCell>
        <mxCell id="Ig4rclOMVAvau0s1pCfv-66" value="Computer" style="sketch=0;outlineConnect=0;fontColor=#232F3E;gradientColor=none;fillColor=#ED7100;strokeColor=none;dashed=0;verticalLabelPosition=bottom;verticalAlign=top;align=center;html=1;fontSize=12;fontStyle=0;aspect=fixed;pointerEvents=1;shape=mxgraph.aws4.instance2;" vertex="1" parent="Ig4rclOMVAvau0s1pCfv-53">
          <mxGeometry x="152" y="71" width="48" height="48" as="geometry" />
        </mxCell>
        <mxCell id="Ig4rclOMVAvau0s1pCfv-72" value="&lt;div&gt;&lt;b&gt;172.16.2.0/24&amp;nbsp;&lt;/b&gt;&lt;/div&gt;" style="text;html=1;align=center;verticalAlign=middle;resizable=0;points=[];autosize=1;strokeColor=none;fillColor=none;" vertex="1" parent="Ig4rclOMVAvau0s1pCfv-27">
          <mxGeometry x="90" y="258" width="100" height="30" as="geometry" />
        </mxCell>
        <mxCell id="Ig4rclOMVAvau0s1pCfv-28" value="&lt;font color=&quot;#000000&quot;&gt;Internet gateway&lt;/font&gt;" style="outlineConnect=0;fillColor=#60a917;strokeColor=#2D7600;dashed=0;verticalLabelPosition=bottom;verticalAlign=top;align=center;html=1;fontSize=12;fontStyle=0;aspect=fixed;pointerEvents=1;shape=mxgraph.aws4.internet_gateway;shadow=0;fontColor=#ffffff;labelBorderColor=none;labelBackgroundColor=none;fillStyle=auto;gradientColor=none;perimeterSpacing=0;" vertex="1" parent="1">
          <mxGeometry x="389" y="660" width="60" height="60" as="geometry" />
        </mxCell>
        <mxCell id="Ig4rclOMVAvau0s1pCfv-33" value="" style="edgeStyle=orthogonalEdgeStyle;html=1;endArrow=block;elbow=vertical;startArrow=block;startFill=1;endFill=1;strokeColor=#545B64;rounded=0;" edge="1" parent="1" source="Ig4rclOMVAvau0s1pCfv-3" target="Ig4rclOMVAvau0s1pCfv-28">
          <mxGeometry width="100" relative="1" as="geometry">
            <mxPoint x="410" y="800" as="sourcePoint" />
            <mxPoint x="490" y="802" as="targetPoint" />
          </mxGeometry>
        </mxCell>
        <mxCell id="Ig4rclOMVAvau0s1pCfv-57" value="" style="edgeStyle=orthogonalEdgeStyle;html=1;endArrow=block;elbow=vertical;startArrow=block;startFill=1;endFill=1;strokeColor=#545B64;rounded=0;entryX=0.5;entryY=0;entryDx=0;entryDy=0;exitX=0.5;exitY=1;exitDx=0;exitDy=0;" edge="1" parent="1" source="Ig4rclOMVAvau0s1pCfv-37" target="Ig4rclOMVAvau0s1pCfv-9">
          <mxGeometry width="100" relative="1" as="geometry">
            <mxPoint x="200" y="1070" as="sourcePoint" />
            <mxPoint x="270" y="1080" as="targetPoint" />
          </mxGeometry>
        </mxCell>
        <mxCell id="Ig4rclOMVAvau0s1pCfv-58" value="" style="edgeStyle=orthogonalEdgeStyle;html=1;endArrow=block;elbow=vertical;startArrow=block;startFill=1;endFill=1;strokeColor=#545B64;rounded=0;exitX=0.5;exitY=1;exitDx=0;exitDy=0;entryX=0.5;entryY=0;entryDx=0;entryDy=0;" edge="1" parent="1" source="Ig4rclOMVAvau0s1pCfv-43" target="Ig4rclOMVAvau0s1pCfv-17">
          <mxGeometry width="100" relative="1" as="geometry">
            <mxPoint x="540" y="1060" as="sourcePoint" />
            <mxPoint x="640" y="1060" as="targetPoint" />
          </mxGeometry>
        </mxCell>
      </root>
    </mxGraphModel>
  </diagram>
</mxfile>
